<?xml version="1.0" encoding="UTF-8" standalone="no"?>
<svg
   xmlns:dc="http://purl.org/dc/elements/1.1/"
   xmlns:cc="http://creativecommons.org/ns#"
   xmlns:rdf="http://www.w3.org/1999/02/22-rdf-syntax-ns#"
   xmlns:svg="http://www.w3.org/2000/svg"
   xmlns="http://www.w3.org/2000/svg"
   xmlns:sodipodi="http://sodipodi.sourceforge.net/DTD/sodipodi-0.dtd"
   xmlns:inkscape="http://www.inkscape.org/namespaces/inkscape"
   width="420"
   height="420"
   viewBox="0 0 111.125 111.12501"
   version="1.1"
   id="svg8"
   inkscape:version="1.0.2-2 (e86c870879, 2021-01-15)"
   sodipodi:docname="Script small D.svg">
  <defs
     id="defs2" />
  <sodipodi:namedview
     id="base"
     pagecolor="#ffffff"
     bordercolor="#666666"
     borderopacity="1.0"
     inkscape:pageopacity="0.0"
     inkscape:pageshadow="2"
     inkscape:zoom="0.98994949"
     inkscape:cx="345.76714"
     inkscape:cy="230.41447"
     inkscape:document-units="px"
     inkscape:current-layer="layer1"
     showgrid="false"
     units="px"
     showguides="true"
     inkscape:guide-bbox="true"
     inkscape:snap-center="true"
     inkscape:snap-object-midpoints="false"
     inkscape:window-width="1366"
     inkscape:window-height="705"
     inkscape:window-x="-8"
     inkscape:window-y="-8"
     inkscape:window-maximized="1"
     inkscape:document-rotation="0"
     inkscape:snap-bbox="true"
     inkscape:bbox-paths="true"
     inkscape:bbox-nodes="true" />
  <metadata
     id="metadata5">
    <rdf:RDF>
      <cc:Work
         rdf:about="">
        <dc:format>image/svg+xml</dc:format>
        <dc:type
           rdf:resource="http://purl.org/dc/dcmitype/StillImage" />
        <dc:title />
      </cc:Work>
    </rdf:RDF>
  </metadata>
  <g
     inkscape:label="Layer 1"
     inkscape:groupmode="layer"
     id="layer1"
     transform="translate(0,-185.87499)">
    <path
       d="m 70.445268,231.48981 0.103352,-1.29191 q 0.155029,-2.48046 0.155029,-4.28913 0,-4.23745 -0.516762,-7.64809 -0.516763,-3.41063 -1.756994,-5.83942 -1.188554,-2.48046 -3.255605,-3.77236 -2.015374,-1.34359 -5.11595,-1.34359 -3.772368,0 -7.027973,1.80867 -3.203929,1.757 -6.304505,5.47769 h -3.720691 v -4.28913 q 4.909245,-3.46231 7.596411,-4.90925 2.738843,-1.49861 5.426009,-2.22208 2.738842,-0.72347 5.942771,-0.72347 8.629937,0 12.919067,5.8911 4.28913,5.83942 4.28913,17.72496 0,4.70254 -0.82682,11.21375 -0.82682,6.45953 -2.790518,13.48751 -1.963699,7.02797 -4.547512,11.93721 -2.583814,4.90925 -5.736066,8.11318 -3.152253,3.20393 -7.286354,4.96092 -4.082425,1.75699 -9.250052,1.75699 -5.219304,0 -9.043348,-2.11872 -3.824043,-2.17041 -5.787742,-6.20116 -1.963698,-4.08242 -1.963698,-9.97352 0,-5.78774 1.808669,-11.47213 1.80867,-5.73606 5.27098,-10.38693 3.513986,-4.70254 8.319879,-7.3897 4.85757,-2.68717 10.386931,-2.68717 3.720691,0 6.51121,0.8785 2.790518,0.82682 6.201152,3.30728 z m -2.480461,9.92184 q 0,-5.27098 -2.170403,-7.64809 -2.118727,-2.37711 -6.51121,-2.37711 -3.152253,0 -6.046124,1.65365 -2.842195,1.60196 -5.115951,4.65086 -2.273755,3.0489 -3.824044,7.07965 -1.498611,4.03075 -2.377108,8.21653 -0.82682,4.1341 -0.82682,8.62993 0,4.65087 0.981849,7.28636 1.033525,2.58381 2.687166,3.56566 1.653641,0.98185 4.134101,0.98185 5.581038,0 9.508434,-4.44416 3.979073,-4.49584 6.769591,-13.43583 2.790519,-8.99167 2.790519,-14.1593 z"
       style="font-style:normal;font-variant:normal;font-weight:normal;font-stretch:normal;font-size:105.833px;line-height:100%;font-family:'Cambria Math';-inkscape-font-specification:'Cambria Math';text-align:center;letter-spacing:0px;word-spacing:0px;text-anchor:middle;fill:#000000;fill-opacity:1;stroke:none;stroke-width:0.264583px;stroke-linecap:butt;stroke-linejoin:miter;stroke-opacity:1"
       id="path9" />
  </g>
</svg>
